<?xml version="1.0" encoding="utf-8"?>
<!-- Generator: Adobe Illustrator 16.0.4, SVG Export Plug-In . SVG Version: 6.00 Build 0)  -->
<!DOCTYPE svg PUBLIC "-//W3C//DTD SVG 1.1//EN" "http://www.w3.org/Graphics/SVG/1.1/DTD/svg11.dtd">
<svg version="1.1" id="Layer_1" xmlns="http://www.w3.org/2000/svg" xmlns:xlink="http://www.w3.org/1999/xlink" x="0px" y="0px"
	 width="50px" height="50px" viewBox="0 0 50 50" enable-background="new 0 0 50 50" xml:space="preserve">
<g>
	
		<linearGradient id="SVGID_1_" gradientUnits="userSpaceOnUse" x1="49.0156" y1="28.5752" x2="49.0156" y2="-21.4248" gradientTransform="matrix(1 0.0045 -0.0045 1 -23.9992 21.2052)">
		<stop  offset="0" style="stop-color:#442DC9"/>
		<stop  offset="0.0185" style="stop-color:#462ECA"/>
		<stop  offset="0.4105" style="stop-color:#6248DA"/>
		<stop  offset="0.7511" style="stop-color:#7457E4"/>
		<stop  offset="1" style="stop-color:#7A5DE8"/>
	</linearGradient>
	<circle fill="url(#SVGID_1_)" cx="25" cy="25" r="25"/>
	<g>
		<path fill="#FFFFFF" d="M23.139,34.422c0,0-0.01,0.034-0.029,0.098c-0.02,0.063-0.056,0.156-0.112,0.27
			c-0.058,0.113-0.14,0.248-0.268,0.389c-0.13,0.136-0.313,0.29-0.604,0.361c-0.073,0.017-0.151,0.024-0.232,0.025l-0.062-0.004
			L21.8,35.56l-0.016-0.001c0.003,0.001-0.043-0.012-0.027-0.007l-0.005-0.002l-0.04-0.003c-0.016-0.002-0.021,0-0.051-0.008
			l-0.074-0.022c-0.026-0.007-0.05-0.016-0.068-0.023c-0.04-0.017-0.083-0.032-0.119-0.055c-0.078-0.04-0.151-0.089-0.217-0.141
			c-0.266-0.217-0.435-0.495-0.557-0.773c-0.236-0.565-0.294-1.171-0.266-1.755c0.017-0.292,0.058-0.581,0.119-0.858
			c0.016-0.069,0.033-0.139,0.049-0.207l0.028-0.101l0.016-0.061l0.015-0.046c0.02-0.062,0.04-0.122,0.059-0.182
			c0.024-0.067,0.048-0.134,0.073-0.199c0.1-0.255,0.211-0.488,0.336-0.704c0.126-0.214,0.262-0.408,0.4-0.575
			c0.14-0.167,0.284-0.309,0.42-0.424c0.14-0.112,0.267-0.2,0.381-0.258c0.029-0.014,0.055-0.027,0.08-0.041
			c0.026-0.011,0.051-0.021,0.074-0.03c0.045-0.02,0.084-0.033,0.118-0.043c0.065-0.019,0.1-0.024,0.1-0.024
			s-0.02,0.029-0.057,0.083c-0.019,0.026-0.039,0.062-0.062,0.102c-0.024,0.039-0.05,0.084-0.076,0.136
			c-0.055,0.1-0.112,0.227-0.171,0.369c-0.058,0.146-0.117,0.309-0.173,0.487c-0.056,0.181-0.11,0.375-0.161,0.581
			c-0.049,0.206-0.097,0.428-0.139,0.649c-0.009,0.054-0.018,0.109-0.029,0.164c-0.011,0.062-0.021,0.125-0.031,0.188l-0.009,0.049
			c-0.002,0.01,0.002-0.01,0.002-0.006l0,0.001l-0.001,0.005l-0.001,0.013l-0.004,0.021l-0.012,0.088
			c-0.008,0.059-0.016,0.117-0.024,0.177c-0.03,0.238-0.054,0.478-0.066,0.716c-0.027,0.473-0.012,0.945,0.066,1.329
			c0.04,0.189,0.097,0.352,0.159,0.454c0.015,0.028,0.03,0.05,0.046,0.07c0.018,0.023,0.039,0.052,0.062,0.07
			c0.034,0.025,0.074,0.044,0.114,0.055c0.109,0.033,0.26,0.01,0.395-0.035c0.136-0.047,0.259-0.109,0.36-0.165
			c0.101-0.059,0.182-0.104,0.238-0.142C23.109,34.441,23.139,34.422,23.139,34.422z"/>
		<path fill="#FFFFFF" d="M24.233,34.426c0,0-0.023-0.054-0.062-0.156c-0.02-0.053-0.044-0.114-0.073-0.189
			c-0.024-0.074-0.048-0.164-0.075-0.266c-0.013-0.052-0.03-0.105-0.041-0.162c-0.01-0.056-0.021-0.115-0.031-0.178
			c-0.024-0.123-0.045-0.259-0.056-0.403c-0.014-0.145-0.027-0.3-0.027-0.465c0-0.081,0-0.166-0.001-0.251
			c0-0.087,0.009-0.175,0.013-0.265c0.005-0.091,0.012-0.183,0.019-0.276c0.012-0.093,0.024-0.188,0.037-0.283
			c0.021-0.195,0.065-0.391,0.106-0.596l0.016-0.076l0.008-0.038l0.004-0.019l0.002-0.01l0.001-0.005l0.003-0.011
			c0.013-0.048,0.026-0.097,0.038-0.146l0.02-0.074l0.022-0.08c0.016-0.053,0.032-0.106,0.047-0.16
			c0.064-0.21,0.141-0.421,0.228-0.633c0.086-0.213,0.184-0.425,0.296-0.635c0.11-0.212,0.233-0.422,0.373-0.625
			c0.275-0.409,0.611-0.8,1.03-1.138c0.214-0.166,0.449-0.317,0.718-0.435c0.269-0.119,0.576-0.196,0.904-0.194
			c0.082-0.002,0.165,0.01,0.247,0.018c0.083,0.015,0.164,0.026,0.244,0.051l0.06,0.02l0.029,0.009l0.008,0.002
			c0.057,0.021,0.019,0.008,0.032,0.013l0.009,0.004l0.078,0.031l0.02,0.01l0.031,0.015l0.063,0.032
			c0.042,0.021,0.089,0.045,0.119,0.065c0.274,0.173,0.484,0.4,0.63,0.635c0.294,0.473,0.396,0.949,0.445,1.382
			c0.044,0.435,0.023,0.836-0.025,1.196c-0.098,0.723-0.307,1.284-0.473,1.66c-0.04,0.094-0.078,0.178-0.117,0.249
			c-0.035,0.071-0.066,0.132-0.093,0.18c-0.054,0.096-0.083,0.146-0.083,0.146s0.004-0.06,0.015-0.168s0.021-0.268,0.034-0.467
			c0.024-0.399,0.051-0.968-0.01-1.62c-0.029-0.323-0.083-0.669-0.177-1.01c-0.092-0.336-0.234-0.674-0.429-0.911
			c-0.098-0.12-0.201-0.207-0.308-0.258c-0.016-0.01-0.02-0.009-0.029-0.013c-0.003-0.001-0.006-0.002-0.01-0.004l-0.005-0.003
			l-0.02-0.008l-0.079-0.025l-0.01-0.004c0.01,0.004-0.033-0.011,0.021,0.009h-0.002l-0.011-0.002l-0.021-0.004
			c-0.026-0.009-0.056-0.009-0.084-0.014c-0.03,0.001-0.059-0.005-0.091,0c-0.242,0.013-0.565,0.16-0.856,0.397
			c-0.298,0.231-0.571,0.535-0.818,0.857c-0.121,0.164-0.238,0.332-0.348,0.503s-0.208,0.349-0.307,0.522
			c-0.098,0.176-0.18,0.356-0.267,0.531c-0.02,0.043-0.039,0.084-0.059,0.128l-0.029,0.063l-0.029,0.07
			c-0.02,0.047-0.039,0.093-0.059,0.14c-0.017,0.041-0.034,0.083-0.05,0.125c-0.035,0.086-0.069,0.173-0.102,0.257
			c-0.036,0.085-0.058,0.171-0.09,0.253c-0.029,0.085-0.059,0.167-0.086,0.249c-0.023,0.081-0.046,0.161-0.07,0.24
			c-0.023,0.08-0.051,0.156-0.068,0.233c-0.019,0.078-0.038,0.151-0.056,0.225c-0.042,0.147-0.064,0.288-0.092,0.423
			c-0.013,0.065-0.029,0.131-0.037,0.193c-0.01,0.062-0.018,0.125-0.027,0.184s-0.017,0.113-0.025,0.168
			c-0.006,0.054-0.01,0.105-0.015,0.154c-0.01,0.099-0.019,0.187-0.026,0.265c-0.002,0.078-0.004,0.146-0.005,0.2
			C24.237,34.367,24.233,34.426,24.233,34.426z"/>
		<path fill="#FFFFFF" d="M34.617,29.355c0,0-0.034,0.052-0.097,0.151c-0.031,0.049-0.072,0.109-0.119,0.179
			c-0.049,0.069-0.104,0.15-0.17,0.238c-0.131,0.176-0.293,0.386-0.5,0.612c-0.208,0.228-0.457,0.473-0.772,0.703
			c-0.038,0.03-0.08,0.058-0.122,0.085c-0.042,0.026-0.085,0.056-0.129,0.084c-0.09,0.05-0.181,0.104-0.283,0.147
			c-0.099,0.049-0.205,0.083-0.317,0.122l-0.076,0.024l-0.085,0.022c-0.059,0.016-0.114,0.026-0.174,0.039
			c-0.118,0.021-0.241,0.038-0.375,0.04c-0.033,0.001-0.071-0.003-0.105-0.004s-0.071-0.005-0.111-0.011l-0.058-0.01l-0.028-0.007
			c0.012,0.005-0.026-0.008-0.023-0.007l-0.005-0.001l-0.01-0.004c-0.028-0.006-0.054-0.012-0.086-0.021
			c-0.04-0.017-0.084-0.033-0.124-0.053c-0.039-0.019-0.073-0.038-0.11-0.059c-0.069-0.041-0.138-0.089-0.199-0.146
			c-0.124-0.109-0.227-0.244-0.301-0.382c-0.156-0.282-0.223-0.576-0.254-0.863c-0.015-0.143-0.019-0.286-0.015-0.426
			c0.002-0.141,0.011-0.282,0.031-0.419c0.018-0.138,0.043-0.273,0.071-0.41c0.03-0.133,0.064-0.269,0.107-0.398
			c0.079-0.263,0.183-0.52,0.303-0.765c0.03-0.062,0.06-0.123,0.094-0.185l0.059-0.107l0.048-0.079l0.098-0.16
			c0.013-0.024,0.038-0.059,0.059-0.088l0.064-0.091c0.043-0.06,0.083-0.124,0.129-0.178l0.135-0.161
			c0.044-0.054,0.093-0.104,0.142-0.153l0.147-0.149c0.41-0.381,0.888-0.694,1.434-0.841c0.27-0.073,0.553-0.11,0.835-0.075
			c0.282,0.032,0.544,0.131,0.769,0.285l0.064,0.049l0.032,0.024l0.037,0.031c0.05,0.042,0.098,0.083,0.138,0.125l0.062,0.064
			l0.057,0.067c0.039,0.044,0.072,0.093,0.105,0.14c0.132,0.188,0.21,0.399,0.25,0.599c0.041,0.2,0.04,0.393,0.028,0.569
			c-0.014,0.177-0.045,0.339-0.079,0.49c-0.032,0.151-0.086,0.286-0.12,0.411c-0.02,0.063-0.048,0.121-0.068,0.179
			c-0.022,0.057-0.044,0.11-0.063,0.162c-0.047,0.098-0.089,0.186-0.127,0.263c-0.016,0.039-0.035,0.073-0.054,0.104
			c-0.019,0.032-0.034,0.06-0.049,0.086C34.646,29.301,34.617,29.355,34.617,29.355z M34.617,29.355c0,0,0.029-0.056,0.087-0.157
			c0.06-0.099,0.13-0.256,0.211-0.459c0.033-0.104,0.073-0.216,0.104-0.343c0.015-0.064,0.027-0.132,0.041-0.201
			c0.006-0.034,0.016-0.072,0.02-0.106c0.003-0.035,0.008-0.073,0.012-0.108c0.011-0.076,0.014-0.152,0.017-0.232
			c-0.003-0.079,0.001-0.16-0.01-0.241c-0.013-0.165-0.05-0.334-0.117-0.492c-0.066-0.16-0.169-0.304-0.3-0.421
			c-0.033-0.028-0.064-0.058-0.104-0.083l-0.054-0.038l-0.059-0.034c-0.039-0.025-0.078-0.044-0.117-0.062l-0.028-0.014
			l-0.035-0.016l-0.074-0.031c-0.155-0.05-0.326-0.068-0.495-0.04c-0.17,0.021-0.343,0.099-0.509,0.188
			c-0.167,0.091-0.328,0.213-0.479,0.349c-0.156,0.129-0.29,0.295-0.43,0.451c-0.063,0.087-0.133,0.166-0.192,0.258l-0.092,0.132
			c-0.033,0.045-0.054,0.086-0.082,0.128l-0.04,0.064c-0.014,0.023-0.026,0.038-0.043,0.068l-0.091,0.164l-0.046,0.081l-0.003,0.005
			c0.018-0.032,0.003-0.007,0.008-0.012l-0.005,0.009l-0.01,0.02l-0.02,0.035c-0.026,0.051-0.05,0.103-0.075,0.151
			c-0.198,0.404-0.361,0.825-0.473,1.238c-0.111,0.408-0.161,0.831-0.088,1.13c0.02,0.074,0.044,0.141,0.076,0.196
			c0.017,0.028,0.036,0.055,0.057,0.08l0.034,0.035c0.009,0.007,0.016,0.016,0.024,0.025c0.02,0.014,0.049,0.028,0.073,0.041
			l0.009,0.005l0.005,0.003c0.005,0.002-0.029-0.01-0.014-0.005l0.011,0.005l0.023,0.012c0.014,0.008,0.032,0.016,0.053,0.022
			c0.02,0.005,0.035,0.014,0.059,0.019c0.084,0.021,0.179,0.033,0.274,0.04c0.049,0.002,0.098,0.005,0.146,0.005h0.069l0.079-0.003
			c0.089-0.008,0.186-0.012,0.276-0.033c0.182-0.035,0.361-0.096,0.523-0.17c0.166-0.072,0.317-0.162,0.459-0.254
			c0.069-0.048,0.136-0.097,0.2-0.143c0.063-0.048,0.123-0.099,0.181-0.147c0.229-0.196,0.413-0.389,0.551-0.559
			c0.139-0.166,0.238-0.308,0.304-0.405C34.583,29.407,34.617,29.355,34.617,29.355z"/>
		<path fill="#FFFFFF" d="M34.101,25.988c0,0,0.021,0.002,0.062,0.006c0.02,0.002,0.044,0.005,0.073,0.009
			c0.029,0.002,0.062,0.014,0.102,0.023c0.153,0.041,0.377,0.139,0.603,0.348c0.225,0.206,0.445,0.51,0.63,0.887
			c0.097,0.188,0.176,0.395,0.255,0.615c0.074,0.222,0.144,0.457,0.199,0.705c0.117,0.496,0.194,1.041,0.233,1.621
			c0.035,0.577,0.035,1.188-0.01,1.817c-0.019,0.315-0.056,0.634-0.097,0.954c-0.022,0.16-0.042,0.323-0.069,0.484
			c-0.014,0.08-0.028,0.162-0.042,0.242c-0.016,0.082-0.033,0.165-0.05,0.248l-0.049,0.236l-0.024,0.119l-0.031,0.125
			c-0.042,0.168-0.085,0.336-0.131,0.502c-0.053,0.163-0.103,0.326-0.155,0.487c-0.052,0.163-0.116,0.322-0.174,0.483
			c-0.251,0.636-0.553,1.255-0.911,1.831c-0.093,0.142-0.187,0.282-0.278,0.423l-0.037,0.051l-0.021,0.033l-0.019,0.024l-0.07,0.094
			c-0.048,0.063-0.093,0.127-0.141,0.19c-0.099,0.131-0.21,0.266-0.312,0.396c-0.113,0.127-0.226,0.253-0.344,0.372
			c-0.062,0.059-0.126,0.116-0.188,0.175l-0.095,0.086l-0.047,0.042l-0.016,0.014l-0.006,0.005l-0.013,0.009l-0.021,0.017
			c-0.104,0.082-0.272,0.209-0.411,0.288c-0.289,0.175-0.594,0.317-0.915,0.399c-0.318,0.083-0.65,0.116-0.969,0.08
			c-0.317-0.038-0.623-0.143-0.87-0.295l-0.077-0.048c-0.033-0.022-0.063-0.045-0.096-0.067c-0.03-0.022-0.061-0.046-0.091-0.068
			c-0.029-0.023-0.052-0.047-0.078-0.07c-0.104-0.092-0.192-0.191-0.271-0.293c-0.157-0.204-0.261-0.419-0.338-0.622
			c-0.151-0.41-0.182-0.78-0.178-1.077c0.001-0.298,0.051-0.523,0.076-0.675c0.037-0.151,0.059-0.23,0.059-0.23
			s0.004,0.08,0.014,0.235c0.015,0.151,0.036,0.374,0.103,0.644c0.063,0.268,0.17,0.587,0.363,0.893
			c0.188,0.306,0.477,0.593,0.843,0.733c0.186,0.074,0.381,0.109,0.588,0.104c0.207-0.009,0.423-0.056,0.636-0.141
			c0.212-0.085,0.425-0.208,0.622-0.36l0.075-0.056l0.066-0.058c0.04-0.032,0.101-0.088,0.155-0.138l0.021-0.019l0.01-0.01
			l0.005-0.005c0.012-0.01-0.009,0.008-0.005,0.005l0.034-0.037l0.067-0.073c0.045-0.048,0.089-0.096,0.135-0.145
			c0.087-0.105,0.169-0.219,0.259-0.326c0.081-0.117,0.164-0.229,0.247-0.353c0.044-0.067,0.087-0.132,0.131-0.199l0.064-0.099
			l0.015-0.024c0.007-0.009-0.001,0.004,0,0l0.005-0.006l0.006-0.013l0.028-0.049c0.078-0.127,0.156-0.254,0.236-0.383
			c0.296-0.526,0.564-1.082,0.784-1.657c0.054-0.144,0.113-0.286,0.161-0.433c0.049-0.146,0.098-0.293,0.146-0.439
			c0.04-0.146,0.081-0.29,0.123-0.433l0.033-0.107l0.028-0.117l0.055-0.234l0.054-0.22c0.016-0.075,0.032-0.151,0.048-0.226
			c0.035-0.15,0.061-0.302,0.093-0.449c0.054-0.299,0.104-0.595,0.147-0.888c0.087-0.585,0.142-1.152,0.171-1.693
			c0.015-0.27,0.02-0.532,0.02-0.786c0.001-0.255-0.01-0.499-0.024-0.732c-0.032-0.469-0.097-0.895-0.19-1.259
			c-0.095-0.365-0.225-0.669-0.371-0.896c-0.146-0.223-0.312-0.368-0.439-0.444c-0.031-0.018-0.059-0.036-0.085-0.049
			c-0.027-0.012-0.05-0.022-0.067-0.03C34.119,25.996,34.101,25.988,34.101,25.988z"/>
		<path fill="#FFFFFF" d="M44.416,23.98c0,0,0.037-0.111,0.104-0.32c0.036-0.104,0.075-0.233,0.123-0.383
			c0.045-0.152,0.101-0.325,0.154-0.521c0.113-0.39,0.242-0.865,0.355-1.412c0.115-0.547,0.22-1.167,0.259-1.838
			c0.02-0.335,0.024-0.682-0.005-1.033c-0.029-0.349-0.087-0.703-0.196-1.035c-0.025-0.085-0.062-0.163-0.092-0.244
			c-0.038-0.077-0.069-0.158-0.113-0.229c-0.08-0.15-0.179-0.284-0.291-0.402c-0.109-0.12-0.236-0.219-0.377-0.301
			c-0.034-0.021-0.068-0.044-0.107-0.059l-0.092-0.045c-0.103-0.039-0.204-0.078-0.306-0.116c-0.083-0.023-0.168-0.047-0.251-0.071
			c-0.091-0.019-0.182-0.036-0.273-0.055c-0.093-0.007-0.184-0.022-0.275-0.028l-0.14-0.002c-0.045-0.001-0.092-0.003-0.137,0.001
			c-0.37,0.018-0.737,0.11-1.094,0.266c-0.356,0.156-0.692,0.387-1.012,0.651c-0.319,0.266-0.616,0.575-0.888,0.909
			c-0.551,0.667-1.006,1.433-1.378,2.216c-0.093,0.196-0.18,0.394-0.259,0.594c-0.078,0.198-0.16,0.4-0.219,0.594
			c-0.069,0.213-0.138,0.426-0.205,0.636c-0.059,0.204-0.115,0.406-0.171,0.606c-0.215,0.812-0.376,1.618-0.469,2.385
			c-0.09,0.769-0.105,1.496-0.063,2.168c0.052,0.645,0.209,1.241,0.479,1.671c0.037,0.053,0.066,0.111,0.106,0.156
			c0.039,0.045,0.076,0.093,0.115,0.138c0.042,0.042,0.085,0.082,0.126,0.12c0.042,0.04,0.09,0.068,0.134,0.103
			c0.021,0.016,0.043,0.034,0.065,0.048c0.023,0.012,0.048,0.025,0.072,0.037c0.048,0.023,0.092,0.054,0.14,0.072
			c0.098,0.031,0.188,0.077,0.284,0.091c0.045,0.011,0.093,0.021,0.137,0.031c0.045,0.01,0.089,0.009,0.133,0.014
			s0.086,0.009,0.127,0.012l0.029,0.004h0.009c0,0,0.005,0,0.001,0h0.004h0.016c0.02,0,0.039,0,0.06,0.001
			c0.081,0.001,0.153,0,0.218-0.006c0.064-0.003,0.126-0.006,0.179-0.015c0.055-0.006,0.102-0.012,0.144-0.018
			c0.04-0.007,0.074-0.013,0.104-0.018c0.055-0.01,0.083-0.015,0.083-0.015s-0.025,0.011-0.078,0.033
			c-0.053,0.021-0.131,0.056-0.235,0.088c-0.053,0.018-0.112,0.035-0.18,0.051c-0.068,0.02-0.142,0.034-0.219,0.049
			c-0.02,0.005-0.039,0.009-0.06,0.013l-0.015,0.002l-0.005,0.001l-0.005,0.001l-0.01,0.001l-0.031,0.002
			c-0.044,0.005-0.091,0.01-0.137,0.015c-0.048,0.003-0.096,0.011-0.147,0.01c-0.051-0.002-0.104-0.005-0.158-0.006
			c-0.108,0.001-0.221-0.028-0.342-0.049c-0.06-0.013-0.118-0.038-0.181-0.058c-0.03-0.01-0.062-0.021-0.093-0.032
			c-0.03-0.012-0.06-0.028-0.09-0.044c-0.249-0.111-0.486-0.304-0.688-0.542c-0.204-0.237-0.37-0.526-0.507-0.842
			c-0.133-0.317-0.231-0.657-0.307-1.027c-0.007-0.043-0.016-0.086-0.024-0.13l-0.011-0.064l-0.004-0.019l-0.001-0.006l-0.001-0.018
			l-0.005-0.035c-0.012-0.091-0.023-0.184-0.034-0.278c-0.023-0.187-0.049-0.379-0.056-0.573c-0.007-0.098-0.012-0.197-0.017-0.295
			c-0.005-0.1-0.011-0.2-0.01-0.3c0.003-0.201,0.005-0.405,0.005-0.613c0.035-0.828,0.145-1.691,0.331-2.577
			c0.05-0.222,0.099-0.448,0.152-0.672c0.06-0.214,0.121-0.429,0.181-0.645c0.131-0.466,0.297-0.913,0.493-1.354
			c0.387-0.881,0.888-1.731,1.515-2.506c0.32-0.384,0.672-0.748,1.067-1.073c0.395-0.324,0.836-0.606,1.324-0.809
			c0.486-0.203,1.021-0.319,1.549-0.319c0.066-0.004,0.131,0.002,0.197,0.005l0.196,0.012c0.13,0.014,0.258,0.037,0.386,0.056
			c0.125,0.031,0.248,0.061,0.372,0.095c0.125,0.043,0.254,0.087,0.373,0.132c0.1,0.044,0.198,0.089,0.297,0.133l0.03,0.013
			l0.012,0.006l0.021,0.012l0.044,0.023l0.087,0.049c0.059,0.03,0.114,0.068,0.17,0.105c0.112,0.071,0.213,0.159,0.312,0.244
			c0.094,0.092,0.187,0.185,0.266,0.286c0.163,0.2,0.295,0.416,0.393,0.636c0.055,0.108,0.091,0.22,0.133,0.33
			c0.034,0.11,0.07,0.22,0.093,0.33c0.203,0.881,0.134,1.691,0.015,2.406c-0.123,0.716-0.314,1.344-0.513,1.888
			c-0.198,0.542-0.403,1-0.585,1.369c-0.179,0.37-0.339,0.651-0.445,0.843C44.475,23.879,44.416,23.98,44.416,23.98z"/>
		<path fill="#FFFFFF" d="M40.589,28.953c0,0,0.058-0.052,0.161-0.148c0.111-0.093,0.254-0.243,0.435-0.431
			c0.087-0.099,0.187-0.2,0.284-0.323c0.051-0.06,0.102-0.123,0.155-0.187c0.052-0.067,0.104-0.137,0.159-0.206
			c0.056-0.071,0.106-0.149,0.163-0.225c0.055-0.077,0.111-0.156,0.163-0.242c0.052-0.084,0.113-0.167,0.164-0.257
			c0.027-0.046,0.054-0.091,0.081-0.136l0.041-0.068l0.01-0.019l0.004-0.004c-0.009,0.014-0.001,0.001-0.004,0.003l0.005-0.009
			l0.021-0.038c0.106-0.197,0.235-0.409,0.321-0.611c0.024-0.05,0.049-0.102,0.073-0.153l0.037-0.078l0.031-0.081
			c0.042-0.108,0.085-0.217,0.128-0.329c0.037-0.113,0.066-0.229,0.102-0.344l0.027-0.086l0.012-0.043l0.003-0.005
			c0.002-0.012-0.003,0.01-0.003,0.005l0.003-0.012l0.007-0.024l0.021-0.099c0.009-0.033,0.009-0.052,0.013-0.079
			c0.035-0.21,0.033-0.429-0.018-0.56c-0.023-0.068-0.056-0.11-0.094-0.148c-0.039-0.037-0.09-0.072-0.165-0.103
			c-0.006-0.003,0.041,0.018,0.019,0.008l-0.007-0.002l-0.013-0.005l-0.025-0.01l-0.025-0.01l-0.013-0.005
			c-0.003-0.001-0.003,0-0.005,0c-0.003,0-0.007,0-0.01,0l-0.006-0.002l-0.014-0.002c-0.034-0.006-0.068-0.01-0.107-0.01
			c-0.075,0-0.161,0.009-0.254,0.036c-0.186,0.052-0.386,0.166-0.578,0.308c-0.193,0.146-0.375,0.324-0.54,0.524
			c-0.166,0.198-0.317,0.416-0.447,0.646c-0.031,0.058-0.065,0.115-0.095,0.175l-0.044,0.088l-0.039,0.082
			c-0.029,0.065-0.068,0.144-0.081,0.189c-0.019,0.054-0.041,0.102-0.06,0.161c-0.152,0.474-0.201,0.972-0.128,1.43
			c0.036,0.229,0.106,0.445,0.195,0.646c0.089,0.204,0.218,0.38,0.355,0.546c0.035,0.039,0.072,0.079,0.108,0.118l0.013,0.015
			c0.007,0.006-0.042-0.031-0.019-0.015l0.005,0.004l0.009,0.009l0.036,0.03l0.073,0.062l0.071,0.06
			c0.013,0.013,0.021,0.017,0.03,0.022l0.026,0.017c0.036,0.022,0.07,0.047,0.105,0.073c0.042,0.021,0.084,0.044,0.128,0.064
			c0.021,0.012,0.042,0.023,0.063,0.033l0.068,0.024c0.046,0.015,0.091,0.034,0.137,0.049c0.047,0.01,0.094,0.021,0.142,0.033
			c0.022,0.006,0.045,0.013,0.068,0.016l0.073,0.01c0.048,0.008,0.096,0.015,0.142,0.02c0.098,0.004,0.19,0.01,0.286,0.01
			c0.048-0.001,0.095-0.003,0.141-0.005c0.022,0,0.047-0.001,0.069-0.001c-0.005,0.001,0.017-0.004-0.01,0.001h0.005l0.01-0.001
			l0.018-0.003l0.037-0.005c0.055-0.006,0.084-0.015,0.121-0.021c0.033-0.005,0.08-0.02,0.119-0.029
			c0.332-0.094,0.629-0.222,0.869-0.323c0.242-0.105,0.434-0.189,0.562-0.249c0.13-0.062,0.199-0.093,0.199-0.093
			s-0.054,0.055-0.159,0.152c-0.106,0.096-0.261,0.239-0.473,0.405c-0.213,0.167-0.469,0.366-0.816,0.557
			c-0.046,0.022-0.085,0.048-0.143,0.069c-0.052,0.023-0.113,0.048-0.154,0.062l-0.035,0.012l-0.018,0.007l-0.009,0.002
			l-0.005,0.003l-0.019,0.004c-0.025,0.006-0.052,0.012-0.079,0.019c-0.053,0.013-0.106,0.026-0.161,0.039
			c-0.109,0.026-0.227,0.037-0.347,0.056c-0.06,0.002-0.122,0.006-0.185,0.01c-0.03,0.001-0.063,0.001-0.095,0.004
			c-0.032,0-0.064-0.003-0.097-0.004c-0.065-0.004-0.132-0.009-0.2-0.014c-0.065-0.01-0.134-0.023-0.202-0.035
			c-0.033-0.007-0.068-0.014-0.104-0.02c-0.034-0.01-0.067-0.021-0.102-0.033c-0.069-0.021-0.139-0.041-0.208-0.067
			c-0.073-0.032-0.146-0.068-0.22-0.104l-0.054-0.028c-0.02-0.01-0.039-0.02-0.05-0.028l-0.079-0.05l-0.081-0.052l-0.039-0.026
			l-0.01-0.006l-0.005-0.004c0.019,0.016-0.033-0.024-0.029-0.021l-0.021-0.019c-0.058-0.048-0.115-0.095-0.174-0.143
			c-0.226-0.204-0.436-0.444-0.602-0.724c-0.168-0.277-0.292-0.589-0.375-0.911c-0.084-0.324-0.112-0.664-0.103-1.003
			c0.009-0.34,0.059-0.682,0.156-1.013c0.024-0.084,0.058-0.174,0.087-0.261c0.03-0.096,0.059-0.151,0.087-0.224l0.021-0.052
			l0.01-0.026l0.005-0.013l0.015-0.033l0.055-0.113c0.037-0.075,0.077-0.149,0.116-0.223c0.164-0.295,0.352-0.579,0.571-0.843
			c0.224-0.263,0.475-0.507,0.766-0.721c0.29-0.211,0.626-0.388,1.017-0.484c0.195-0.047,0.406-0.071,0.625-0.054
			c0.107,0.008,0.219,0.027,0.326,0.058l0.04,0.011l0.047,0.015l0.093,0.034l0.021,0.009l0.013,0.006l0.025,0.012l0.073,0.034
			c0.187,0.094,0.376,0.231,0.524,0.412c0.15,0.18,0.25,0.397,0.299,0.603c0.05,0.208,0.055,0.403,0.042,0.583
			c-0.005,0.091-0.02,0.176-0.031,0.261c-0.019,0.082-0.034,0.161-0.059,0.245c-0.012,0.04-0.023,0.086-0.034,0.119l-0.033,0.096
			l-0.021,0.06L44.1,25.285l-0.041,0.102c-0.057,0.134-0.11,0.268-0.172,0.394c-0.253,0.5-0.574,0.945-0.852,1.283l-0.026,0.033
			l-0.008,0.008c-0.002,0.004,0.003-0.005-0.007,0.012L42.99,27.12l-0.015,0.017l-0.058,0.066c-0.039,0.043-0.076,0.086-0.112,0.129
			c-0.073,0.087-0.153,0.164-0.229,0.24c-0.073,0.078-0.148,0.15-0.225,0.219c-0.074,0.068-0.143,0.138-0.219,0.197
			c-0.073,0.061-0.144,0.12-0.212,0.176c-0.07,0.056-0.142,0.105-0.206,0.154c-0.131,0.098-0.259,0.177-0.374,0.249
			c-0.111,0.076-0.224,0.13-0.314,0.181c-0.092,0.052-0.172,0.087-0.237,0.117C40.659,28.923,40.589,28.953,40.589,28.953z"/>
		
			<ellipse transform="matrix(0.7169 0.6972 -0.6972 0.7169 25.6403 -8.1431)" fill="#FFFFFF" cx="22.847" cy="27.499" rx="0.496" ry="0.746"/>
		<g>
			<g>
				<path fill="#FFFFFF" d="M22.86,34.872c-0.676-0.133-1.158-1.192-1.23-2.697c-0.054-1.151,0.205-2.227,0.663-2.74l0.066,0.06
					c-0.442,0.497-0.694,1.548-0.64,2.677c0.069,1.464,0.524,2.49,1.157,2.613L22.86,34.872z"/>
			</g>
			<g>
				<path fill="#FFFFFF" d="M25.036,33.846c-0.194-0.898-0.094-2.066,0.275-3.208c0.776-2.397,2.057-3.836,3.114-3.493
					c0.558,0.181,0.944,0.769,1.09,1.656c0.142,0.877,0.03,1.944-0.312,3.007l-0.086-0.027c0.34-1.05,0.45-2.102,0.31-2.965
					c-0.139-0.854-0.504-1.416-1.029-1.586c-1.173-0.381-2.378,1.515-3,3.438c-0.364,1.125-0.464,2.276-0.272,3.159L25.036,33.846z"
					/>
			</g>
			<g>
				<path fill="#FFFFFF" d="M31.624,31.15c-0.113-0.001-0.212-0.015-0.293-0.04c-0.234-0.076-0.402-0.242-0.503-0.492
					c-0.25-0.624-0.034-1.749,0.537-2.804c0.596-1.098,1.532-1.832,2.329-1.828c0.19,0.001,0.364,0.044,0.519,0.129
					c0.647,0.35,0.861,0.963,0.653,1.877c-0.088,0.394-0.246,0.775-0.469,1.137c-0.495,0.812-1.354,1.753-2.275,1.962
					C32.02,31.112,31.821,31.15,31.624,31.15z M33.694,26.076c-0.767-0.004-1.67,0.713-2.25,1.781
					c-0.559,1.032-0.773,2.127-0.533,2.727c0.09,0.226,0.24,0.374,0.447,0.439c0.071,0.024,0.162,0.036,0.267,0.037
					c0.188,0.001,0.38-0.037,0.477-0.058c0.895-0.201,1.734-1.123,2.222-1.92c0.216-0.354,0.369-0.727,0.455-1.11
					c0.198-0.869-0.001-1.451-0.607-1.779C34.028,26.116,33.869,26.077,33.694,26.076z"/>
			</g>
			<g>
				<path fill="#FFFFFF" d="M36.538,26.635c-0.153-1.531,0.104-3.412,0.721-5.295c0.591-1.804,1.936-3.95,3.608-4.676
					c0.854-0.373,1.73-0.356,2.601,0.046c0.886,0.41,1.335,1.373,1.304,2.784c-0.029,1.301-0.481,2.959-1.273,4.667l-0.08-0.038
					c0.786-1.697,1.234-3.342,1.264-4.632c0.031-1.373-0.402-2.307-1.252-2.7c-0.846-0.393-1.696-0.408-2.528-0.046
					c-1.646,0.717-2.974,2.837-3.558,4.623c-0.613,1.872-0.867,3.74-0.716,5.26L36.538,26.635z"/>
			</g>
			<g>
				<path fill="#FFFFFF" d="M40.252,28.789c-0.737-0.628-1.182-1.896-0.508-3.309c0.309-0.649,0.746-1.191,1.229-1.526
					c0.49-0.339,0.972-0.426,1.354-0.244c0.494,0.236,0.633,0.755,0.4,1.502c-0.205,0.655-0.527,1.175-0.819,1.597
					c-0.493,0.716-1.118,1.337-1.764,1.754c0.052,0.057,0.107,0.107,0.165,0.157L40.252,28.789z M41.907,23.707
					c-0.273-0.001-0.576,0.107-0.884,0.321c-0.471,0.326-0.896,0.855-1.198,1.491c-0.502,1.056-0.389,2.232,0.259,2.979
					c0.641-0.412,1.262-1.028,1.751-1.738c0.287-0.417,0.607-0.929,0.808-1.573c0.221-0.709,0.102-1.178-0.354-1.395
					C42.171,23.735,42.043,23.707,41.907,23.707z"/>
			</g>
			<g>
				<path fill="#FFFFFF" d="M9.361,35.529c-0.384-0.57-0.902-1.423-1.295-2.378c-1.293,0.054-2.514-0.22-3.476-1.169
					c-0.781-0.77-1.026-1.849-0.657-2.886c0.362-1.019,1.228-1.775,2.264-2.012c-0.11-1.361-0.046-3.003,0.335-4.999
					c0.57-2.988,2.048-5.706,4.161-7.653c1.969-1.816,4.256-2.749,6.277-2.56c2.991,0.28,5.396,2.205,6.277,5.023
					c0.778,2.488,0.236,5.491-1.487,8.237c-1.421,2.263-3.452,4.087-6.312,5.646c0.971,1.263,1.774,2.856,2.328,4.118l-0.082,0.037
					c-0.554-1.261-1.356-2.856-2.326-4.111c-0.552,0.298-1.134,0.586-1.748,0.866c-0.752,0.344-1.487,0.618-2.183,0.813
					c-1.067,0.303-2.195,0.585-3.277,0.644c0.389,0.938,0.897,1.771,1.275,2.331L9.361,35.529z M6.204,27.176
					c-1.001,0.231-1.837,0.966-2.188,1.952c-0.356,1.002-0.118,2.046,0.637,2.791c0.932,0.92,2.117,1.189,3.376,1.144
					c-0.033-0.082-0.064-0.164-0.095-0.247c-0.092-0.25-0.22-0.526-0.366-0.845C7.086,30.928,6.403,29.446,6.204,27.176z
					 M6.293,27.156c0.196,2.265,0.876,3.739,1.355,4.776c0.148,0.321,0.275,0.599,0.369,0.851c0.034,0.092,0.07,0.184,0.106,0.275
					c1.083-0.054,2.217-0.337,3.289-0.641c0.691-0.196,1.422-0.468,2.17-0.81c0.607-0.277,1.183-0.562,1.729-0.858
					c-0.305-0.387-0.625-0.742-0.959-1.04c-2.481-2.226-5.633-2.803-7.756-2.599C6.494,27.121,6.393,27.137,6.293,27.156z
					 M7.458,26.984c2.075,0.01,4.772,0.701,6.955,2.657c0.341,0.308,0.668,0.669,0.979,1.065c2.853-1.554,4.877-3.369,6.292-5.623
					c1.709-2.724,2.248-5.698,1.477-8.162c-0.87-2.783-3.246-4.684-6.201-4.961c-1.995-0.186-4.257,0.737-6.207,2.537
					c-2.099,1.934-3.566,4.635-4.133,7.604c-0.379,1.981-0.443,3.612-0.334,4.964c0.1-0.02,0.201-0.034,0.303-0.044
					C6.862,26.995,7.153,26.982,7.458,26.984z"/>
			</g>
		</g>
		<path fill="#FFFFFF" d="M20.656,10.188C16.217,8.126,10.4,11.227,7.665,17.116c-1.223,2.632-1.667,5.855-1.646,8.726
			c-1.155,0.469-1.903,1.336-2.126,2.422c-0.389,1.885,0.632,4.01,3.465,4.749c0.444,1.058,0.985,2.151,1.592,3.235l2.038-0.889
			c-0.181-0.221-0.358-0.451-0.534-0.688c-0.364-0.493-0.693-0.991-0.987-1.484c1.907-0.155,4.427-0.942,6.344-1.8
			c0.187,0.341,0.365,0.697,0.53,1.067c0.586,1.318,0.944,2.635,1.08,3.833l2.106-0.782c-0.208-0.708-0.471-1.423-0.788-2.136
			c-0.449-1.008-0.975-1.936-1.553-2.769c3.062-1.716,5.912-4.245,7.156-7.498C26.662,17.04,25.097,12.25,20.656,10.188z
			 M5.088,28.36c0.083-0.571,0.429-1.032,0.965-1.353c0.07,1.339,0.239,2.562,0.473,3.564C5.47,30.071,4.951,29.305,5.088,28.36z
			 M14.202,29.792c-0.117,0.05-0.246,0.104-0.383,0.162c-1.977,0.816-3.842,1.245-5.083,1.175c-0.044-0.003-0.088-0.006-0.132-0.01
			c-0.005-0.001-0.01-0.001-0.015-0.002c-0.07-0.006-0.14-0.016-0.21-0.025c-0.549-1.099-0.917-2.701-1.013-4.536
			c0.581-0.093,1.243-0.093,1.957,0.01c2.27,0.329,4.574,1.812,5.33,3.022C14.503,29.659,14.353,29.726,14.202,29.792z
			 M22.187,23.288c-1.235,2.314-3.709,4.292-6.295,5.684c-1.57-1.804-3.425-2.79-6.012-3.324c-0.937-0.192-1.787-0.231-2.536-0.139
			c0.012-2.706,0.603-5.774,2.024-8.437c2.613-4.895,7.588-7.124,11.104-5.248C23.985,13.7,24.799,18.393,22.187,23.288z"/>
		
			<linearGradient id="SVGID_2_" gradientUnits="userSpaceOnUse" x1="40.6826" y1="8.6577" x2="42.566" y2="6.7743" gradientTransform="matrix(1 0.0045 -0.0045 1 -23.9992 21.2052)">
			<stop  offset="0" style="stop-color:#000000;stop-opacity:0.27"/>
			<stop  offset="1" style="stop-color:#FFFFFF;stop-opacity:0"/>
		</linearGradient>
		<path fill="url(#SVGID_2_)" d="M19.203,29.324l-1.174-1.665c-0.684,0.479-1.401,0.916-2.126,1.307l0,0.001
			c0.454,0.499,0.892,1.04,1.29,1.632C17.878,30.213,18.554,29.788,19.203,29.324z"/>
	</g>
</g>
</svg>
